<svg xmlns="http://www.w3.org/2000/svg" version="1.1" xmlns:xlink="http://www.w3.org/1999/xlink" xmlns:svgjs="http://svgjs.dev/svgjs" width="100%" height="100%" viewBox="0 0 1000 600"><rect width="1000" height="600" x="0" y="0" fill="#141a46"/><g><circle r="166.66666666666666" cx="380.31168619791663" cy="402.5339659894218" fill="#ec8b5e" transform="matrix(0.5850826014881155,0,0,0.5850826014881154,0,64.48440120213766)"/><path d="M330.164574655784 477.5339452861127L330.164574655784 477.5339452861127L331.5199012921159 467.10108210876757Q342.1733990381662 465.05233254221946 345.7035521374492 461.0809103055261Q349.2021860126314 457.1094880688328 349.2021860126314 447.5906823904091L349.2021860126314 447.5906823904091L349.4543398054373 352.2765487097692Q349.4543398054373 345.02712716659886 347.84685937629956 342.5055892385396Q346.2708981712625 340.01557053458106 341.0387069705396 340.01557053458106L341.0387069705396 340.01557053458106Q338.9899574039914 340.01557053458106 336.15322723492477 340.23620510328624Q333.3164970658581 340.48835889609217 333.3164970658581 340.48835889609217L333.3164970658581 340.48835889609217L332.8752279284477 339.5743013971707L334.4511891334848 329.5827073572359Q334.4511891334848 329.5827073572359 337.41399619895435 329.70878425363884Q340.376803264424 329.8033419259411 345.13620610363586 329.9294188223441Q349.89560894284773 330.02397649464626 355.4429923845781 330.1500533910492Q361.02189505040917 330.2761302874522 366.0019324583262 330.2761302874522L366.0019324583262 330.2761302874522Q381.66698683639436 330.2761302874522 393.23454208136616 330.02397649464626Q404.802097326338 329.8033419259411 413.7850761950491 329.1414382198255Q422.7365358396595 328.44801528960926 429.76532281412466 327.53395779068774L429.76532281412466 327.53395779068774L430.45874574434094 328.8892844270196Q430.45874574434094 328.8892844270196 429.45013057311724 334.12147562774254Q428.40999617779283 339.3536668284655 427.18074643786395 348.0844919043707Q425.9199774738343 356.8153169802759 425.226554543618 367.24818015762105L425.226554543618 367.24818015762105L414.35242222886245 368.1622376565425Q414.35242222886245 368.1622376565425 414.57305679756763 364.06473852344624Q414.7936913662728 359.99875861445065 414.7936913662728 357.72937447919736L414.7936913662728 357.72937447919736Q414.7936913662728 350.22779914322103 412.9970955925306 346.82372294034104Q411.16898059468764 343.41964673746105 404.70753965403577 342.5055892385396Q398.24609871338396 341.62305096371887 384.37764010905806 341.62305096371887L384.37764010905806 341.62305096371887Q377.12821856588766 341.62305096371887 373.7241423630077 342.0643201011292Q370.3200661601277 342.5055892385396 369.53208555760915 344.3337042363825Q368.7441049550907 346.1618192342255 368.49195116228475 350.44843371192627L368.49195116228475 350.44843371192627L366.6953553885425 398.3576543450521L390.05110044719135 398.5782889137573Q393.70733044287726 398.5782889137573 399.25471388460767 397.884865983541Q404.802097326338 397.22296227742544 409.3408655968447 396.6556162436121Q413.87963386735134 396.0882702097988 413.87963386735134 396.0882702097988L413.87963386735134 396.0882702097988L414.7936913662728 397.22296227742544L411.610249732098 410.8392670889454Q411.610249732098 410.8392670889454 406.8508468928862 410.5871132961395Q402.0914440536743 410.3664787274343 395.63000311302244 410.2719210551321Q389.1685621723706 410.1458441587291 383.71573640294247 410.1458441587291L383.71573640294247 410.1458441587291Q378.7041797709247 410.1458441587291 373.94477693171285 410.71319019254247Q369.18537409250104 411.2805362263558 366.2225670270314 411.7218053637662L366.2225670270314 411.7218053637662L365.3400287522106 449.4187973882521Q365.3400287522106 458.49633392926535 367.35725909465805 461.64825633933947Q369.4060086612062 464.8316979735142 375.30010356804473 464.8316979735142L375.30010356804473 464.8316979735142Q377.569487703298 464.8316979735142 381.4463522676892 464.6110634048091Q385.29169760797953 464.39042883610387 388.34906234575135 464.26435193970093Q391.437946307624 464.1697942673987 391.437946307624 464.1697942673987L391.437946307624 464.1697942673987L391.87921544503433 465.05233254221946L389.83046587848617 475.73734951237054Q389.83046587848617 475.73734951237054 386.331832003304 475.61127261596755Q382.801678904021 475.5167149436653 377.47493003099584 475.26456115085944Q372.14818115797067 475.0439265821542 366.34864392343434 474.949368909852Q360.54910668889806 474.8232920134491 356.0103384183914 474.8232920134491L356.0103384183914 474.8232920134491Q350.3368780802581 474.8232920134491 344.3482255011173 475.5167149436653Q338.3280536978759 476.1786186497809 334.2305545647796 476.8720415799972Q330.164574655784 477.5339452861127 330.164574655784 477.5339452861127Z " fill="#141a46" transform="matrix(0.5850826014881155,0,0,0.5850826014881154,0,64.48440120213766)"/><path d="M630.3116617163794 476.4759508027741L630.3116617163794 476.4759508027741L631.5753763328046 466.7482871275005Q641.5087609921475 464.8380208468576 644.8002967372552 461.1350431336115Q648.062443770353 457.4320654203653 648.062443770353 448.55667439337844L648.062443770353 448.55667439337844L648.2975534664321 359.68520927547075Q648.2975534664321 352.92580551319605 646.7987291539276 350.57470855240484Q645.3292935534332 348.25300030362354 640.4507673597914 348.25300030362354L640.4507673597914 348.25300030362354Q638.5405010791485 348.25300030362354 635.8955169982585 348.45872128769275Q633.2505329173683 348.6938309837719 633.2505329173683 348.6938309837719L633.2505329173683 348.6938309837719L632.8390909492298 347.8415583354851L634.3085265497243 338.5253366283499Q634.3085265497243 338.5253366283499 637.071065478654 338.6428914763895Q639.8336044075837 338.73105761241914 644.2712999210771 338.8486124604587Q648.7089954345705 338.9367785964884 653.8814087483112 339.0543334445279Q659.0832107740617 339.1718882925675 663.7266272716244 339.1718882925675L663.7266272716244 339.1718882925675Q678.3328171405398 339.1718882925675 689.1184744481694 338.9367785964884Q699.9041317557991 338.73105761241914 708.2799146786178 338.11389466021143Q716.6263088894266 337.4673429959939 723.1799916676321 336.61507034770705L723.1799916676321 336.61507034770705L723.8265433318496 337.8787849641323Q723.8265433318496 337.8787849641323 722.8861045475331 342.7573111577741Q721.9162770512069 347.6358373514159 720.770117282821 355.7765105781554Q719.5945688024256 363.917183804895 718.9480171382079 373.64484748016855L718.9480171382079 373.64484748016855L708.8089114947958 374.4971201284554Q708.8089114947958 374.4971201284554 709.014632478865 370.6765875671697Q709.2203534629343 366.88544371789385 709.2203534629343 364.76945645318176L709.2203534629343 364.76945645318176Q709.2203534629343 357.77494299482794 707.5451968783705 354.6009620977598Q705.8406515817969 351.42698120069167 699.8159656197695 350.57470855240484Q693.7912796577419 349.7518246161279 680.8602463733903 349.7518246161279L680.8602463733903 349.7518246161279Q674.1008426111156 349.7518246161279 670.9268617140474 350.1632665842664Q667.7528808169793 350.57470855240484 667.018163016732 352.2792538489785Q666.2834452164848 353.9837991455521 666.0483355204058 357.98066397889716L666.0483355204058 357.98066397889716L664.3731789358419 402.65150623393015L686.1502145351706 402.85722721799937Q689.5593051283178 402.85722721799937 694.7317184420584 402.21067555378175Q699.9041317557991 401.59351260157405 704.1361062852233 401.06451578539605Q708.3680808146474 400.53551896921806 708.3680808146474 400.53551896921806L708.3680808146474 400.53551896921806L709.2203534629343 401.59351260157405L706.2520935499354 414.2894361898466Q706.2520935499354 414.2894361898466 701.814398036442 414.05432649376746Q697.3767025229486 413.84860550969825 691.3520165609211 413.7604393736686Q685.3273305988936 413.64288452562903 680.2430834211826 413.64288452562903L680.2430834211826 413.64288452562903Q675.57027821161 413.64288452562903 671.1325826981167 414.1718813418071Q666.6948871846232 414.7008781579851 663.9323482556936 415.11232012612356L663.9323482556936 415.11232012612356L663.1094643194167 450.2612196899521Q663.1094643194167 458.72516874880046 664.9903418880497 461.66403994978947Q666.9006081686925 464.6322998627884 672.3962973145419 464.6322998627884L672.3962973145419 464.6322998627884Q674.512284579254 464.6322998627884 678.1270961564705 464.42657887871917Q681.712519021677 464.2208578946499 684.5632240866364 464.10330304661034Q687.4433178636057 464.0151369105807 687.4433178636057 464.0151369105807L687.4433178636057 464.0151369105807L687.8547598317441 464.8380208468576L685.9444935511012 474.80079421821034Q685.9444935511012 474.80079421821034 682.6823465180034 474.6832393701708Q679.3908107728957 474.5950732341411 674.4241184432244 474.359963538062Q669.4574261135529 474.15424255399273 664.0499031037332 474.06607641796313Q658.6423800939133 473.9485215699235 654.4104055644892 473.9485215699235L654.4104055644892 473.9485215699235Q649.1204374027091 473.9485215699235 643.5365821208298 474.5950732341411Q637.9233381269408 475.21223618634883 634.1028055656552 475.8587878505664Q630.3116617163794 476.4759508027741 630.3116617163794 476.4759508027741ZM795.9758313161299 476.4759508027741L795.9758313161299 476.4759508027741Q787.5118822572815 476.4759508027741 782.7509109116793 472.15581013732026Q777.989939566077 467.80628075985646 777.1376669177903 459.3423317010081L777.1376669177903 459.3423317010081L776.3147829815134 459.1366107169389Q771.2305358038025 464.2208578946499 766.6752854422693 467.9238356078961Q762.1200350807364 471.6268133211422 758.6227783515596 473.62524573781474Q755.1549103343925 475.65306686649717 753.0389230696803 475.65306686649717L753.0389230696803 475.65306686649717Q745.1921369630397 475.65306686649717 739.0498961529727 472.2439762733499Q732.9370440549155 468.86427439221256 729.4397873257387 462.95714327822463Q725.9425305965617 457.0206234522268 725.9425305965617 449.4089470416653L725.9425305965617 449.4089470416653Q725.9425305965617 443.2667062315983 728.9989566455904 438.62328973403567Q732.0847714066288 433.9504845244631 737.1690185843397 432.4810489239686L737.1690185843397 432.4810489239686L777.3727766138695 421.46028192025983L777.5784975979386 412.1734489251345Q777.5784975979386 401.59351260157405 772.699971404297 395.65699277557627Q767.8508339226651 389.7204729495785 758.9460541836684 389.7204729495785L758.9460541836684 389.7204729495785Q753.0389230696803 389.7204729495785 746.4558515794649 392.48301187850814Q739.9021688012594 395.24555080743784 733.5542070071233 400.30040927313894L733.5542070071233 400.30040927313894L732.4962133747672 399.68324632093123L729.9687841419168 390.57274559786526Q735.4644732877662 387.3987647007972 742.2238770500408 383.9015079716202Q749.0126695243255 380.4336399544532 755.1549103343925 378.082542993662Q761.2677624324497 375.7608347448807 764.4417433295177 375.7608347448807L764.4417433295177 375.7608347448807Q773.7579650366529 375.7608347448807 780.3116478148584 379.0523704899884Q786.8947193050737 382.3145175230862 790.3625873222409 388.3685921971235Q793.8598440514177 394.393278159151 793.8598440514177 403.0629482020686L793.8598440514177 403.0629482020686Q793.8598440514177 405.8254871309982 793.3308472352398 411.9383392290554Q792.8018504190618 418.0805800391224 791.949577770775 425.6040903136543Q791.1266938344979 433.09821187617626 790.5976970183199 440.09272533453014Q790.068700202142 447.08723879288397 790.068700202142 451.73065529044663L790.068700202142 451.73065529044663Q790.068700202142 456.37407178800925 792.3904084509234 458.9308897328697Q794.7121166997047 461.4583189657202 798.7383702450595 461.4583189657202L798.7383702450595 461.4583189657202Q802.323793110266 461.4583189657202 805.9386046874827 459.66560753311694Q809.5240275526892 457.87289610051363 811.434293833332 456.16835080394003L811.434293833332 456.16835080394003L814.402553746331 459.5480526850774Q812.6980084497573 462.3105916140071 809.8473033847979 465.807848343184Q806.9965983198388 469.3051050723609 803.4993415906617 472.2439762733499Q800.0020848614847 475.21223618634883 795.9758313161299 476.4759508027741ZM756.6243459348871 461.252597981651L756.6243459348871 461.252597981651Q760.6505994802419 461.252597981651 766.0287337780519 458.4018929166916Q771.4362567878716 455.5511878517323 775.8739523013651 451.084103626229L775.8739523013651 451.084103626229L776.9319459337212 429.5127890109697L748.1603968760387 438.18245905388727Q742.0181560659717 440.09272533453014 742.0181560659717 447.08723879288397L742.0181560659717 447.08723879288397Q742.0181560659717 452.9943699068719 746.1619644593661 457.1381783002664Q750.2763841407507 461.252597981651 756.6243459348871 461.252597981651ZM862.2179881864222 473.9485215699235L850.3743372464364 477.53394443513014Q850.3743372464364 477.53394443513014 848.875512933932 472.8905279375675Q847.4060773334375 468.24711144000486 845.0843690846564 460.6060463174334Q842.7332721238649 452.9943699068719 839.7944009228761 443.91325789581583Q836.8261410098771 434.8027571727499 833.9754359449178 425.6040903136543Q831.0953421679485 416.4054234545587 828.5679129350981 408.6761921959576Q826.0404837022475 400.9469609373565 824.541659389743 396.5092654238631L824.541659389743 396.5092654238631Q820.9562365245365 386.3407710684411 810.1705792169068 385.92932910030265L810.1705792169068 385.92932910030265L809.7297485367585 385.0770564520158L810.9934631531837 378.082542993662Q810.9934631531837 378.082542993662 814.402553746331 378.082542993662Q817.7822556274684 378.082542993662 822.0142301568926 378.20009784170156Q826.2462046863166 378.3176526897411 828.5679129350981 378.3176526897411L828.5679129350981 378.3176526897411Q835.1215957133036 378.3176526897411 840.852394555232 377.8768220095928Q846.5538046851507 377.4653800414543 850.2567823983968 377.1421042093455Q853.9597601116432 376.81882837723674 853.9597601116432 376.81882837723674L853.9597601116432 376.81882837723674L854.3712020797816 377.8768220095928L853.1074874633562 384.43050478779827Q845.9072530209332 384.6656144838774 843.262268940043 385.8117742522631Q840.617284859153 386.9873227326587 840.617284859153 389.9555826456576L840.617284859153 389.9555826456576Q840.617284859153 391.4250182461521 841.9103881875881 396.8325412559719Q843.1741028040133 402.21067555378175 845.2900900687255 409.7341858283136Q847.4060773334375 417.22830739083565 849.6102307341794 425.16325963350596Q851.843772846931 433.09821187617626 853.9597601116432 440.09272533453014Q856.0757473763551 447.08723879288397 857.3394619927803 451.4073794583378Q858.6031766092058 455.7569088358016 858.6031766092058 455.7569088358016L858.6031766092058 455.7569088358016L859.4554492574925 455.7569088358016Q867.3022353641331 436.2721927732444 872.8860906460122 422.75338524869494Q878.4993346399012 409.20518901213563 881.4675945529002 401.3584029054949Q884.4358544658992 393.5410055108642 884.4358544658992 391.01357627801366L884.4358544658992 391.01357627801366Q884.4358544658992 388.04531636501474 882.4080333372167 386.9873227326587Q880.4096009205441 385.92932910030265 875.3253537428332 385.92932910030265L875.3253537428332 385.92932910030265L867.3022353641331 385.92932910030265L866.4499627158464 384.6656144838774L867.5079563482025 378.082542993662Q867.5079563482025 378.082542993662 871.0052130773793 378.082542993662Q874.4730810945464 378.082542993662 879.7630492563267 378.20009784170156Q885.0530174181067 378.3176526897411 890.1372645958179 378.3176526897411L890.1372645958179 378.3176526897411Q893.9577971571034 378.3176526897411 897.9840507024585 378.20009784170156Q901.9809155358034 378.082542993662 904.7434544647333 378.082542993662Q907.505993393663 378.082542993662 907.505993393663 378.082542993662L907.505993393663 378.082542993662L906.0071690811585 385.92932910030265Q901.569473567665 386.54649205251036 899.0420443348146 389.5147519655093Q896.485226389954 392.48301187850814 892.4589728445992 401.7992335856433L892.4589728445992 401.7992335856433L862.2179881864222 473.9485215699235ZM915.3233907882936 476.4759508027741L915.3233907882936 476.4759508027741L916.1756634365804 467.80628075985646Q922.5236252307166 466.13112417529277 925.2567754476365 462.8395884301851Q928.0193143765662 459.5480526850774 928.0193143765662 454.05236353922794L928.0193143765662 454.05236353922794L928.0193143765662 400.30040927313894Q928.0193143765662 394.393278159151 926.1090480959233 391.6307392302213Q924.1987818152804 388.89758901330157 920.2019169819353 388.89758901330157L920.2019169819353 388.89758901330157Q918.4973716853617 388.89758901330157 916.7046602527585 389.30903098144Q914.9119488201552 389.7204729495785 914.9119488201552 389.7204729495785L914.9119488201552 389.7204729495785L915.7348327564321 381.9030755549477Q921.0248009182123 381.0508029066609 926.432323928032 379.9928092743049Q931.8398469378519 378.93481564194883 936.2775424513452 377.99437685763235Q940.7152379648387 377.02454936130596 943.4777768937684 376.40738640909825Q946.2109271106881 375.7608347448807 946.2109271106881 375.7608347448807L946.2109271106881 375.7608347448807L947.2689207430442 378.3176526897411Q946.4166480947574 380.4336399544532 945.4762093104409 387.72204053290596Q944.5357705261245 395.0104411113587 943.8892188619068 405.50221129888945Q943.2426671976891 415.96459277441033 942.8312252295507 428.3372405305741Q942.4197832614122 440.7392769987477 942.4197832614122 453.2000908909411L942.4197832614122 453.2000908909411Q942.4197832614122 459.3423317010081 944.0949398459761 462.19303676596746Q945.7994851425497 465.0731305429367 949.8257386879045 465.0731305429367L949.8257386879045 465.0731305429367Q951.7066162565375 465.0731305429367 954.4691551854673 464.8380208468576Q957.231694114397 464.6322998627884 957.231694114397 464.6322998627884L957.231694114397 464.6322998627884L957.6431360825354 465.48457251107516L955.9385907859617 474.5950732341411Q955.9385907859617 474.5950732341411 954.1458793533584 474.47751838610156Q952.3531679207551 474.359963538062 949.5024628557958 474.27179740203235Q946.6517577908364 474.15424255399273 943.3602220457287 474.06607641796313Q940.068686300621 473.9485215699235 937.129815099632 473.9485215699235L937.129815099632 473.9485215699235Q932.6627308741288 473.9485215699235 927.6078724084277 474.5950732341411Q922.5236252307166 475.21223618634883 918.9088136535001 475.8587878505664Q915.3233907882936 476.4759508027741 915.3233907882936 476.4759508027741ZM933.9558342025639 350.80981824848396L933.9558342025639 350.80981824848396Q928.6658660407836 350.80981824848396 926.1090480959233 347.4007276553367Q923.5816188630727 344.02102577419936 923.5816188630727 339.9947722288444L923.5816188630727 339.9947722288444Q923.5816188630727 334.93991376314335 927.1670417282794 331.23693604989717Q930.7818533054958 327.533958336651 936.0718214672761 327.533958336651L936.0718214672761 327.533958336651Q941.1266799329771 327.533958336651 943.7716640138672 330.7961053697488Q946.4166480947574 334.08764111485647 946.4166480947574 338.31961564428065L946.4166480947574 338.31961564428065Q946.4166480947574 343.40386282199165 942.9487800775903 347.10684053523784Q939.4515233484135 350.80981824848396 933.9558342025639 350.80981824848396ZM1017.5373311586914 476.4759508027741L1017.5373311586914 476.4759508027741Q1004.1948559062014 476.4759508027741 994.2614712468585 470.6569858248158Q984.2986978755057 464.8380208468576 978.8030087296563 454.3756393713367Q973.3073195838069 443.91325789581583 973.3073195838069 429.7185099950389L973.3073195838069 429.7185099950389Q973.3073195838069 414.49515717391586 979.7434475139728 402.3282304018213Q986.2089641561486 390.16130362972683 997.317897295887 382.96106918730374Q1008.4268304356256 375.7608347448807 1022.1807476562542 375.7608347448807L1022.1807476562542 375.7608347448807Q1028.9401514185288 375.7608347448807 1034.5533954124178 376.730662241207Q1040.1666394063068 377.6711010255235 1043.5463412874442 378.72909465787956Q1046.9260431685816 379.7870882902356 1046.9260431685816 379.7870882902356L1046.9260431685816 379.7870882902356L1047.572594832799 381.25652389073014Q1047.572594832799 381.25652389073014 1046.6321560484826 385.0770564520158Q1045.6623285521562 388.89758901330157 1044.6043349198003 395.5394379275367Q1043.5463412874442 402.21067555378175 1043.1348993193058 410.4689036285609L1043.1348993193058 410.4689036285609L1034.465229276388 411.1154552927785L1034.465229276388 404.5323838025631Q1034.465229276388 396.7149864079323 1029.704257930786 391.95401506233014Q1024.9432865851838 387.1930437167279 1017.096500478543 387.1930437167279L1017.096500478543 387.1930437167279Q1004.1948559062014 387.1930437167279 997.2003424478476 396.39171057582354Q990.2352177015036 405.5903774349191 990.2352177015036 422.5182755526158L990.2352177015036 422.5182755526158Q990.2352177015036 440.9449979828169 997.9644489601046 451.613100442407Q1005.6642915066959 462.3105916140071 1019.0067667591859 462.3105916140071L1019.0067667591859 462.3105916140071Q1024.9432865851838 462.3105916140071 1030.4389757310332 460.5178801814037Q1035.9346648768826 458.72516874880046 1039.4319216060596 457.0206234522268Q1042.9291783352364 455.3160781556532 1042.9291783352364 455.3160781556532L1042.9291783352364 455.3160781556532L1044.1928929516616 455.7569088358016L1046.5146012004432 462.3105916140071Q1046.5146012004432 462.3105916140071 1043.5463412874442 464.42657887871917Q1040.5780813744452 466.5425661434312 1035.9346648768826 469.39327120839056Q1031.29124837932 472.2439762733499 1026.2951673376385 474.359963538062Q1021.3284750079672 476.4759508027741 1017.5373311586914 476.4759508027741ZM1100.8837184187398 476.4759508027741L1100.8837184187398 476.4759508027741Q1088.8343464946847 476.4759508027741 1079.5181247875496 470.56881968878616Q1070.2019030804145 464.6322998627884 1065.0294897666738 453.9641974031982Q1059.8570764529331 443.2667062315983 1059.8570764529331 429.5127890109697L1059.8570764529331 429.5127890109697Q1059.8570764529331 414.2894361898466 1066.293204383099 402.1225094177521Q1072.758721025275 389.9555826456576 1083.955820301043 382.8435143392642Q1095.182308288821 375.7608347448807 1108.9362255094495 375.7608347448807L1108.9362255094495 375.7608347448807Q1120.9855974335046 375.7608347448807 1130.3018191406397 381.6973545708785Q1139.6180408477749 387.6044856848664 1144.7904541615155 398.18442200842685Q1149.992256187266 408.7643583319873 1149.992256187266 422.75338524869494L1149.992256187266 422.75338524869494Q1149.992256187266 437.7710170857488 1143.5267395450903 450.026109993873Q1137.0906116149245 462.3105916140071 1125.9816784751858 469.39327120839056Q1114.8727453354475 476.4759508027741 1100.8837184187398 476.4759508027741ZM1106.8202382447375 466.13112417529277L1106.8202382447375 466.13112417529277Q1118.6638891847233 466.13112417529277 1125.6584026430771 456.4916266360488Q1132.623527389421 446.85212909680484 1132.623527389421 430.3650616592565L1132.623527389421 430.3650616592565Q1132.623527389421 417.669138070984 1128.8323835401452 407.9414743957103Q1125.0118509788595 398.18442200842685 1118.2524472165849 392.68873286257735Q1111.4636547423002 387.1930437167279 1102.5882637153134 387.1930437167279L1102.5882637153134 387.1930437167279Q1090.7446127753276 387.1930437167279 1083.7500993169738 396.92070739200153Q1076.7849745706299 406.6483710672752 1076.7849745706299 423.37054820090265L1076.7849745706299 423.37054820090265Q1076.7849745706299 436.0664717891752 1080.5761184199057 445.70596932841914Q1084.3966509811914 455.3160781556532 1091.156054743466 460.723601165473Q1097.9448472177507 466.13112417529277 1106.8202382447375 466.13112417529277ZM1225.962076732832 476.4759508027741L1226.784960669109 467.80628075985646Q1233.1329224632452 466.13112417529277 1235.8954613921749 462.8395884301851Q1238.6580003211045 459.5480526850774 1238.6580003211045 454.05236353922794L1238.6580003211045 454.05236353922794L1239.4808842573816 412.1734489251345Q1239.4808842573816 401.59351260157405 1234.9550226078584 395.86271375964554Q1230.3997722463255 390.16130362972683 1221.9358231874771 390.16130362972683L1221.9358231874771 390.16130362972683Q1216.8515760097662 390.16130362972683 1211.561607847986 392.2772908944389Q1206.2716396862056 394.393278159151 1202.157220004821 396.92070739200153Q1198.0134116114266 399.47752533686196 1195.8974243467144 401.1526819214257L1195.8974243467144 401.1526819214257Q1195.6917033626453 406.6483710672752 1195.3684275305363 414.1718813418071Q1195.0451516984276 421.69539161633895 1194.7512645783288 429.5127890109697Q1194.4279887462199 437.33018640560044 1194.2222677621508 443.6781481997367Q1193.9871580660715 450.026109993873 1193.9871580660715 453.2000908909411L1193.9871580660715 453.2000908909411Q1193.9871580660715 459.7831623811565 1195.8092582106847 462.4281464620466Q1197.6019696432882 465.0731305429367 1201.628223188643 465.0731305429367L1201.628223188643 465.0731305429367Q1203.509100757276 465.0731305429367 1206.2716396862056 464.8380208468576Q1209.0341786151353 464.6322998627884 1209.0341786151353 464.6322998627884L1209.0341786151353 464.6322998627884L1209.4456205832737 465.48457251107516L1207.535354302631 474.5950732341411Q1207.535354302631 474.5950732341411 1204.3613734055627 474.359963538062Q1201.1873925084947 474.15424255399273 1196.7496969950014 474.06607641796313Q1192.3120014815079 473.9485215699235 1188.285747936153 473.9485215699235L1188.285747936153 473.9485215699235Q1183.8480524226595 473.9485215699235 1178.969526229018 474.27179740203235Q1174.120388747386 474.5950732341411 1170.7112981542386 474.88896035424Q1167.3315962731012 475.21223618634883 1167.3315962731012 475.21223618634883L1167.3315962731012 475.21223618634883L1168.3895899054573 466.5425661434312Q1174.5318307155244 465.48457251107516 1177.0592599483748 462.7220335821455Q1179.6160778932353 459.9888833652257 1179.6160778932353 454.05236353922794L1179.6160778932353 454.05236353922794L1179.6160778932353 402.416396537851Q1179.6160778932353 395.24555080743784 1177.294369644454 392.3654570304686Q1174.9432726836628 389.5147519655093 1169.241862553744 389.5147519655093L1169.241862553744 389.5147519655093L1166.9201543049628 389.5147519655093L1166.2736026407454 388.66247931722245L1166.9201543049628 381.6973545708785Q1174.326109731455 380.4336399544532 1181.0855134937299 379.0523704899884Q1187.8743059680144 377.6711010255235 1192.1944466334683 376.6131073931675Q1196.543976010932 375.5551137608114 1196.543976010932 375.5551137608114L1196.543976010932 375.5551137608114L1197.8076906273573 377.2596590573851Q1197.8076906273573 377.2596590573851 1196.8672518430408 381.49163358680926Q1195.8974243467144 385.72360811623344 1195.485982378576 391.2192972620829L1195.485982378576 391.2192972620829L1195.8974243467144 391.8364602142906Q1197.8076906273573 390.57274559786526 1201.922110308742 387.9277615169752Q1206.0659187021365 385.28277743608504 1210.8268900477387 382.5496272191653Q1215.587861393341 379.7870882902356 1220.0255569068343 377.7886558735631Q1224.4632524203275 375.7608347448807 1227.020070365188 375.7608347448807L1227.020070365188 375.7608347448807Q1240.3331569056684 375.7608347448807 1248.179943012309 383.166790171373Q1255.9973404069399 390.57274559786526 1255.9973404069399 403.0629482020686L1255.9973404069399 403.0629482020686Q1255.9973404069399 405.8254871309982 1255.5858984388012 412.1734489251345Q1255.1450677586529 418.52141071927076 1254.5279048064453 426.33880811390156Q1253.8813531422277 434.1562055085323 1253.4699111740892 441.3564399509554Q1253.0290804939407 448.55667439337844 1253.0290804939407 453.2000908909411L1253.0290804939407 453.2000908909411Q1253.0290804939407 459.3423317010081 1254.7336257905147 462.19303676596746Q1256.4087823750783 465.0731305429367 1260.4350359204334 465.0731305429367L1260.4350359204334 465.0731305429367Q1262.345302201076 465.0731305429367 1265.1078411300057 464.8380208468576Q1267.8409913469256 464.6322998627884 1267.8409913469256 464.6322998627884L1267.8409913469256 464.6322998627884L1268.281822027074 465.48457251107516L1266.5772767305002 474.5950732341411Q1266.5772767305002 474.5950732341411 1264.784565297897 474.47751838610156Q1262.9918538652937 474.359963538062 1260.1117600883242 474.27179740203235Q1257.261055023365 474.15424255399273 1253.9989079902673 474.06607641796313Q1250.7073722451596 473.9485215699235 1247.7391123321606 473.9485215699235L1247.7391123321606 473.9485215699235Q1244.3594104510232 473.9485215699235 1240.656432737777 474.359963538062Q1236.953455024531 474.80079421821034 1233.5737531433936 475.21223618634883Q1230.1940512622562 475.65306686649717 1228.0780639975442 476.0645088346356Q1225.962076732832 476.4759508027741 1225.962076732832 476.4759508027741L1225.962076732832 476.4759508027741ZM1305.0764894634563 476.4759508027741L1305.0764894634563 476.4759508027741Q1299.1693583494682 476.4759508027741 1296.2010984364695 472.7729730895279Q1293.2328385234707 469.0699953762818 1293.2328385234707 464.42657887871917L1293.2328385234707 464.42657887871917Q1293.2328385234707 458.9308897328697 1296.847650100687 455.110357171584Q1300.4330729658934 451.31921332230814 1306.3695927918914 451.31921332230814L1306.3695927918914 451.31921332230814Q1312.2767239058794 451.31921332230814 1315.3625386669178 454.9046361875147Q1318.4189647159462 458.49005905272134 1318.4189647159462 463.36858524636307L1318.4189647159462 463.36858524636307Q1318.4189647159462 468.65855340814335 1314.8335418507397 472.5672521054587Q1311.2187302735233 476.4759508027741 1305.0764894634563 476.4759508027741ZM1347.396234757698 476.4759508027741L1347.396234757698 476.4759508027741L1348.2485074059848 467.80628075985646Q1354.596469200121 466.13112417529277 1357.3590081290506 462.8395884301851Q1360.0921583459706 459.5480526850774 1360.0921583459706 454.05236353922794L1360.0921583459706 454.05236353922794L1360.0921583459706 400.30040927313894Q1360.0921583459706 394.393278159151 1358.2112807773376 391.6307392302213Q1356.3010144966947 388.89758901330157 1352.2747609513397 388.89758901330157L1352.2747609513397 388.89758901330157Q1350.5702156547661 388.89758901330157 1348.7775042221629 389.30903098144Q1346.9847927895596 389.7204729495785 1346.9847927895596 389.7204729495785L1346.9847927895596 389.7204729495785L1347.8370654378464 381.9030755549477Q1353.1270335996267 381.0508029066609 1358.5051678974366 379.9928092743049Q1363.9126909072563 378.93481564194883 1368.3503864207496 377.99437685763235Q1372.7880819342429 377.02454936130596 1375.5506208631728 376.40738640909825Q1378.3131597921024 375.7608347448807 1378.3131597921024 375.7608347448807L1378.3131597921024 375.7608347448807L1379.3711534244585 378.3176526897411Q1378.5188807761717 380.4336399544532 1377.5490532798453 387.72204053290596Q1376.6086144955286 395.0104411113587 1375.9620628313112 405.50221129888945Q1375.3448998791034 415.96459277441033 1374.904069198955 428.3372405305741Q1374.4926272308167 440.7392769987477 1374.4926272308167 453.2000908909411L1374.4926272308167 453.2000908909411Q1374.4926272308167 459.3423317010081 1376.1971725273904 462.19303676596746Q1377.872329111954 465.0731305429367 1381.8985826573091 465.0731305429367L1381.8985826573091 465.0731305429367Q1383.8088489379518 465.0731305429367 1386.5419991548717 464.8380208468576Q1389.3045380838014 464.6322998627884 1389.3045380838014 464.6322998627884L1389.3045380838014 464.6322998627884L1389.7159800519398 465.48457251107516L1388.0408234673762 474.5950732341411Q1388.0408234673762 474.5950732341411 1386.2481120347727 474.47751838610156Q1384.4260118901595 474.359963538062 1381.5753068252004 474.27179740203235Q1378.7246017602408 474.15424255399273 1375.4330660151334 474.06607641796313Q1372.1709189820356 473.9485215699235 1369.2026590690364 473.9485215699235L1369.2026590690364 473.9485215699235Q1364.764963555543 473.9485215699235 1359.6807163778321 474.5950732341411Q1354.596469200121 475.21223618634883 1351.0110463349145 475.8587878505664Q1347.396234757698 476.4759508027741 1347.396234757698 476.4759508027741ZM1366.0286781719685 350.80981824848396L1366.0286781719685 350.80981824848396Q1360.738710010188 350.80981824848396 1358.2112807773376 347.4007276553367Q1355.654462832477 344.02102577419936 1355.654462832477 339.9947722288444L1355.654462832477 339.9947722288444Q1355.654462832477 334.93991376314335 1359.2692744096937 331.23693604989717Q1362.8546972749002 327.533958336651 1368.1446654366805 327.533958336651L1368.1446654366805 327.533958336651Q1373.2289126143917 327.533958336651 1375.8738966952817 330.7961053697488Q1378.5188807761717 334.08764111485647 1378.5188807761717 338.31961564428065L1378.5188807761717 338.31961564428065Q1378.5188807761717 343.40386282199165 1375.0216240469947 347.10684053523784Q1371.5243673178177 350.80981824848396 1366.0286781719685 350.80981824848396ZM1446.4361942310277 476.4759508027741L1446.4361942310277 476.4759508027741Q1434.3868223069728 476.4759508027741 1425.0706005998377 470.56881968878616Q1415.7543788927026 464.6322998627884 1410.5819655789617 453.9641974031982Q1405.3801635532113 443.2667062315983 1405.3801635532113 429.5127890109697L1405.3801635532113 429.5127890109697Q1405.3801635532113 414.2894361898466 1411.8456801953869 402.1225094177521Q1418.281808125553 389.9555826456576 1429.508296113331 382.8435143392642Q1440.734784101109 375.7608347448807 1454.4887013217376 375.7608347448807L1454.4887013217376 375.7608347448807Q1466.5380732457927 375.7608347448807 1475.8542949529276 381.6973545708785Q1485.170516660063 387.6044856848664 1490.3429299738034 398.18442200842685Q1495.5153432875443 408.7643583319873 1495.5153432875443 422.75338524869494L1495.5153432875443 422.75338524869494Q1495.5153432875443 437.7710170857488 1489.0792153573782 450.026109993873Q1482.6136987152024 462.3105916140071 1471.504765575464 469.39327120839056Q1460.3958324357257 476.4759508027741 1446.4361942310277 476.4759508027741ZM1452.3727140570256 466.13112417529277L1452.3727140570256 466.13112417529277Q1464.2163649970114 466.13112417529277 1471.1814897433553 456.4916266360488Q1478.1760032017091 446.85212909680484 1478.1760032017091 430.3650616592565L1478.1760032017091 430.3650616592565Q1478.1760032017091 417.669138070984 1474.3554706404232 407.9414743957103Q1470.5643267911473 398.18442200842685 1463.7755343168626 392.68873286257735Q1457.0161305545882 387.1930437167279 1448.1407395276012 387.1930437167279L1448.1407395276012 387.1930437167279Q1436.2676998756058 387.1930437167279 1429.3025751292619 396.92070739200153Q1422.308061670908 406.6483710672752 1422.308061670908 423.37054820090265L1422.308061670908 423.37054820090265Q1422.308061670908 436.0664717891752 1426.1285942321938 445.70596932841914Q1429.9197380814694 455.3160781556532 1436.7085305557541 460.723601165473Q1443.467934318029 466.13112417529277 1452.3727140570256 466.13112417529277Z " fill="#ec8b5e" transform="matrix(0.5850826014881155,0,0,0.5850826014881154,0,64.48440120213766)"/></g></svg>